<?xml version="1.0" encoding="UTF-8"?>
<svg width="1024px" height="1024px" viewBox="0 0 1024 1024" version="1.1" xmlns="http://www.w3.org/2000/svg" xmlns:xlink="http://www.w3.org/1999/xlink">
    <title>编组 2</title>
    <defs>
        <linearGradient x1="50%" y1="0%" x2="50%" y2="100%" id="linearGradient-1">
            <stop stop-color="#2DFFCF" offset="0%"></stop>
            <stop stop-color="#CFFC65" offset="100%"></stop>
        </linearGradient>
        <linearGradient x1="98.1818461%" y1="83.5314307%" x2="4.18150508%" y2="13.2312458%" id="linearGradient-2">
            <stop stop-color="#FF56E7" offset="0%"></stop>
            <stop stop-color="#7441FF" offset="100%"></stop>
        </linearGradient>
        <rect id="path-3" x="0" y="0" width="1024" height="1024"></rect>
        <polygon id="path-5" points="0 0 303 0 303 324 0 324"></polygon>
        <polygon id="path-7" points="0 0 417 0 417 100 0 100"></polygon>
        <polygon id="path-9" points="-1.37650308e-15 0 43.2109073 0 43.2109073 45.8613063 -1.37650308e-15 45.8613063"></polygon>
        <polygon id="path-11" points="3.55271368e-15 7.10542736e-15 51.6048658 7.10542736e-15 51.6048658 26.1058006 3.55271368e-15 26.1058006"></polygon>
    </defs>
    <g id="62" stroke="none" stroke-width="1" fill="none" fill-rule="evenodd">
        <g id="编组-+-编组-蒙版">
            <mask id="mask-4" fill="white">
                <use xlink:href="#path-3"></use>
            </mask>
            <g id="蒙版">
                <use fill="url(#linearGradient-1)" xlink:href="#path-3"></use>
                <use fill="url(#linearGradient-1)" xlink:href="#path-3"></use>
                <use fill="url(#linearGradient-2)" xlink:href="#path-3"></use>
            </g>
            <g id="编组" mask="url(#mask-4)">
                <g transform="translate(511.927870, 512.114933) rotate(-18.000000) translate(-511.927870, -512.114933) translate(11.333843, 319.632076)">
                    <path d="M791.420026,213.774159 C789.074958,205.70796 784.587682,202.231858 776.69884,203.750895 C770.941387,204.859484 766.09329,202.603911 761.722321,199.087251 C756.139598,194.596115 752.357736,188.641101 748.708951,182.636336 C745.11372,176.719717 745.31063,176.72891 750.316147,171.920339 C763.110428,159.629605 775.892808,147.324811 788.543193,134.886986 C793.234952,130.274176 796.439067,124.619292 798.245878,118.255992 C801.635543,106.317303 795.403667,93.1396984 784.182502,88.4127843 C771.795024,83.1943057 757.892313,87.4842737 751.441347,98.1791805 C746.381734,106.5666 741.033789,114.787462 735.591175,122.933696 C733.125472,126.623945 730.119349,129.954037 727.093751,133.782183 C726.715078,132.757414 726.526824,132.283696 726.363453,131.801865 C723.478506,123.283578 720.7975,114.6885 717.648563,106.269715 C715.228302,99.7988016 711.164058,94.5365202 704.805055,91.1972347 C690.076296,83.4625301 671.316833,89.9669716 663.272735,102.551887 C658.6962,109.711748 657.987541,117.280975 661.90302,124.858855 C664.205352,129.315382 667.312635,133.349563 669.921152,137.656295 C675.59151,147.017651 681.173692,156.431462 686.662829,165.608413 C676.471655,176.207603 666.830098,186.235734 657.089004,196.366612 C656.815277,195.823134 656.588614,195.342925 656.336526,194.877859 C653.524067,189.698316 649.228292,188.903377 644.849208,192.847249 C642.641545,194.835138 640.665953,197.082599 638.433405,199.040204 C635.731843,201.410421 633.041641,203.865539 630.033895,205.798269 C625.9069,208.450229 621.576503,206.821415 620.203543,202.113428 C619.464589,199.579357 619.051295,196.717035 619.423476,194.136997 C620.53948,186.399589 621.526735,178.5643 623.628911,171.064292 C628.362865,154.174808 633.591258,137.417272 638.901878,120.695969 C642.681035,108.794053 637.953572,97.3674773 626.574988,92.1549472 C621.462901,89.8128508 616.053286,89.129852 610.486251,89.4337675 C596.339026,90.2065349 585.476518,99.7782521 582.83338,113.548546 C582.038708,117.688179 580.876182,121.777519 579.600053,125.800344 C573.474205,145.111419 568.047279,164.596082 564.610551,184.589074 C564.145324,187.292408 563.778011,190.013047 563.278163,193.305285 C562.191912,192.397865 561.503268,191.890618 560.893604,191.301714 C556.870474,187.417868 553.492169,187.309713 549.362469,191.15246 C546.924896,193.42047 544.655563,195.86964 542.338083,198.263651 C537.959,202.788856 533.068708,206.589423 526.986678,208.501062 C520.273345,210.610625 514.395257,208.2204 510.778389,202.249703 C507.515309,196.862503 507.443361,190.916141 507.8031,184.967076 C508.761684,169.101279 511.83705,153.56265 515.441477,138.121361 C518.011044,127.111724 520.663378,116.121013 523.221044,105.364998 C530.000374,105.614296 536.390752,106.270256 542.740559,105.998787 C558.184469,105.339582 566.619141,97.4621129 568.590405,82.8606476 C569.814601,73.7956366 564.155602,65.8170425 555.280588,63.7118055 C553.534364,63.2970311 551.741076,62.9801369 549.95374,62.8606256 C545.30093,62.5491393 540.639464,62.3723058 535.742681,62.1305794 C535.942295,61.3140092 536.074831,60.6337143 536.274987,59.9739688 C538.211088,53.6041803 540.531813,47.3230789 542.011343,40.8500023 C543.951772,32.3619982 541.367598,25.2567557 534.10519,20.0117792 C527.949589,15.5666088 521.158358,13.7879999 513.683352,14.7981676 C502.952839,16.2485261 494.021565,21.994801 490.867759,33.3159253 C488.700126,41.0960549 485.630711,48.6214796 483.095224,56.303729 C482.371418,58.4965715 481.276511,59.0497843 478.961196,58.9048567 C471.512697,58.4381678 463.970071,57.5215542 456.646534,59.6343621 C448.800428,61.898587 443.0684,66.7060765 440.965141,74.8825943 C438.976567,82.6108095 440.674104,89.5110983 446.476998,95.2070812 C451.269917,99.9118235 457.41524,100.754351 463.693098,101.136138 C465.613512,101.252946 467.547449,101.154524 469.696689,101.154524 C469.401324,102.520522 469.240118,103.397659 469.020487,104.260195 C465.940253,116.37031 462.704221,128.443112 459.799257,140.595407 C455.172955,159.949744 450.990781,179.409531 449.945643,199.352772 C449.33598,211.001065 449.897498,222.576354 454.210584,233.677382 C459.452501,247.167555 468.901476,256.415889 482.730075,260.344619 C500.720832,265.456024 517.374873,261.295842 532.448225,250.760464 C543.372943,243.124721 551.83845,233.072796 558.963995,221.869561 C559.539037,220.965926 560.151946,220.086626 560.747004,219.195969 C560.982863,219.295472 561.219263,219.394974 561.455122,219.494477 C561.455122,221.007565 561.353422,222.528225 561.471351,224.03212 C562.293072,234.51342 565.456074,244.082975 573.556972,251.216878 C584.246913,260.63123 596.67929,261.966944 609.769477,257.515825 C621.804789,253.422699 631.235912,245.589574 638.93704,235.590103 C639.329237,235.081234 639.784186,234.621035 640.036815,234.334965 C640.970514,238.069016 641.338909,241.918252 642.870912,245.229418 C647.578359,255.400854 655.888069,260.642586 667.051892,260.967051 C678.010149,261.285027 686.402626,256.781453 691.553121,246.857691 C693.585513,242.940858 695.411799,238.90884 697.598366,235.081775 C701.691281,227.915966 705.978401,220.861015 710.184917,213.76064 C710.475414,213.843378 710.766451,213.926658 711.057488,214.009937 C711.239251,214.404703 711.481061,214.783245 711.594663,215.197479 C714.010056,223.968849 717.957452,232.023692 723.075489,239.510722 C730.671671,250.623648 740.906122,257.284373 754.588661,258.345374 C778.553256,260.204018 798.112802,236.794409 791.420026,213.774159" id="Fill-1" fill="#FFFFFF"></path>
                    <g id="编组" stroke-width="1" fill="none" transform="translate(0.000000, -0.000000)">
                        <mask id="mask-6" fill="white">
                            <use xlink:href="#path-5"></use>
                        </mask>
                        <g id="Clip-4"></g>
                        <path d="M242.698655,58.7999259 C238.0731,74.6239385 232.787985,90.2799507 228.840327,106.270338 C224.524868,123.754303 221.424986,141.541752 217.792818,159.196428 C217.650443,159.889565 217.486497,160.577824 217.279946,161.505078 C205.372257,159.263086 193.768731,157.078539 181.798484,154.825165 C182.593948,152.789109 183.296113,150.879324 184.078095,149.003138 C193.791382,125.686308 204.315773,102.739078 216.933717,80.8654246 C222.315366,71.5359826 228.923918,62.9181036 235.053574,54.0319659 C235.850116,52.8770986 237.015538,51.8983608 238.187971,51.1027976 C240.740466,49.3713095 243.117689,50.4026152 243.399202,53.5003259 C243.556677,55.2350656 243.195348,57.101496 242.698655,58.7999259 M295.992574,266.95785 C293.629372,265.527679 291.285046,263.929508 289.310139,262.014303 C283.462536,256.341308 280.123745,249.103743 277.838202,241.446176 C273.675904,227.502142 272.423116,213.106675 272.422037,198.632627 C272.420959,176.220288 274.215741,153.910376 277.566935,131.760335 C280.089769,115.087108 282.92917,98.457777 285.933597,81.8642141 C288.471531,67.8464769 291.580581,53.9338754 294.199949,39.9302285 C297.780345,20.787395 286.597472,7.0270777 270.0707,1.97514286 C256.980871,-2.02597653 244.590511,0.304351706 232.873194,6.68294783 C221.065814,13.1103183 211.179951,22.0089205 202.156965,31.9399123 C185.336276,50.4530153 171.795055,71.3408854 159.581045,93.0172735 C149.600805,110.729394 140.948855,129.199142 131.788348,147.373534 C130.918461,149.099603 130.05882,149.821463 127.996547,149.849644 C120.374116,149.953154 112.696137,149.870237 105.152983,150.794781 C97.260364,151.762681 89.3348478,153.255174 81.7232028,155.529683 C72.6716334,158.233406 64.1000388,162.298474 57.1026537,169.030955 C47.3661765,178.398332 44.6378704,192.278959 50.1322334,203.155631 C53.283888,209.393324 60.0795759,212.768506 66.9437546,208.354973 C73.927118,203.865568 81.3845239,200.215624 89.617979,198.644549 C95.3809121,197.545501 101.213954,196.812261 107.77289,195.798297 C106.934822,197.65985 106.557314,198.649427 106.06116,199.575055 C103.382469,204.572254 100.800852,209.627982 97.9517434,214.526007 C91.1873347,226.152177 83.2316179,236.782809 71.9958936,244.506493 C60.7768876,252.219337 48.8363015,250.613037 40.0236409,240.254457 C38.9736287,239.019925 37.9619066,237.75125 36.9561167,236.479867 C33.8632455,232.568709 29.7484055,231.489171 25.3903424,233.351266 C21.648157,234.950521 17.8207625,236.960023 14.8605585,239.694636 C-1.72068263,255.013021 -4.90469511,281.27853 7.73158478,300.043092 C21.0603227,319.83625 40.6222612,325.974768 63.2279948,323.469936 C83.3799247,321.236614 99.7098532,311.093183 113.577349,296.606129 C124.862689,284.816294 132.8842,270.828905 140.125887,256.373825 C149.214668,238.23249 156.802584,219.422948 164.065303,200.481173 C164.730796,198.744807 164.864003,196.756983 167.907798,197.299462 C181.606494,199.739261 195.340784,201.983964 209.09287,204.099685 C211.340662,204.444899 211.861084,205.122862 211.690666,207.287899 C210.480483,222.715214 210.488033,238.121393 213.019495,253.441947 C215.184775,266.547062 218.710163,279.160099 226.402163,290.243249 C239.89269,309.680896 267.994944,316.532061 287.363275,302.383717 C294.378996,297.258621 299.949939,291.113057 302.261368,282.471875 C304.210929,275.183909 302.361678,270.812647 295.992574,266.95785" id="Fill-3" fill="#FFFFFF" mask="url(#mask-6)"></path>
                    </g>
                    <path d="M843.508927,313.541942 C839.646859,320.121217 834.860085,326.093024 828.514056,330.390234 C825.168304,332.656056 821.207528,334.566168 817.272784,335.306282 C808.410256,336.973299 801.454627,328.943032 803.456981,319.928473 C805.3731,311.304274 811.144238,305.789963 818.708925,302.048244 C828.914852,296.999549 839.998843,296.163605 851.164187,295.991909 C851.410955,295.988186 851.659894,296.144655 852.669206,296.477625 C849.528461,302.367137 846.719092,308.072027 843.508927,313.541942 M969.308996,212.101352 C959.397022,212.140334 954.425307,217.105109 954.748547,226.899847 C955.039789,235.735739 952.713653,243.84018 948.28971,251.381549 C940.72882,264.268849 928.28516,268.079328 914.087542,269.62994 C914.482915,268.306722 914.728056,267.384692 915.033399,266.483236 C916.741257,261.444829 918.655207,256.467601 920.148294,251.366931 C927.566005,226.024379 934.938157,200.668292 942.201298,175.281344 C947.728379,155.963658 953.199055,136.627564 958.435979,117.230832 C960.953564,107.904959 956.817609,97.428038 948.827721,91.9759893 C938.756296,85.1027263 928.022663,84.9332635 917.121443,89.6738929 C909.710241,92.8974776 905.053089,98.6148196 904.294342,106.766905 C903.310521,117.329911 900.951844,127.566985 897.955907,137.694693 C893.883949,151.458544 889.286455,165.059971 881.77058,177.363626 C878.375473,182.921251 874.267178,188.227117 869.645278,192.804781 C865.211031,197.196198 858.969676,194.586036 857.964703,188.377631 C857.50913,185.564439 857.299241,182.56879 857.747764,179.778878 C859.179023,170.887762 860.74587,162.003684 862.678803,153.208939 C865.348245,141.067167 868.629458,129.056959 871.217006,116.898944 C873.505178,106.14536 868.122362,95.4838169 858.422446,90.2754049 C846.778208,84.0231449 830.762094,86.3279484 820.873441,95.6013039 C816.741824,99.4756694 814.964004,103.906068 816.049245,109.683507 C816.664811,112.962316 816.67837,116.528617 816.105106,119.817171 C815.086032,125.664994 813.479594,131.416445 812.005489,137.179266 C807.756725,153.792043 804.429955,170.556416 803.612092,187.730098 C802.969409,201.216745 804.235252,214.412652 810.225499,226.781277 C816.869819,240.500191 829.730546,247.969552 844.806227,246.608976 C854.869516,245.701564 863.113767,240.764401 870.268437,233.94528 C873.031164,231.311837 875.413704,228.279914 878.201922,225.169485 C878.105384,226.120751 878.157449,226.831629 877.950814,227.456963 C873.965632,239.514816 869.89964,251.54668 865.996895,263.630521 C865.425259,265.400948 864.644818,265.675445 862.945638,265.681942 C853.019021,265.716593 843.053896,265.411235 833.173921,266.167591 C815.747156,267.501096 799.133373,272.051148 784.591906,282.124715 C767.31266,294.094317 757.195678,310.221986 758.26519,331.857469 C758.998446,346.687908 765.212684,358.855126 778.117341,366.884852 C795.506141,377.704488 814.128244,378.653047 833.398453,373.054275 C853.656823,367.168012 868.633797,354.076056 881.044916,337.695547 C889.140021,327.012347 895.526725,315.286923 900.876458,303.01467 C901.653102,301.232873 902.556655,300.717987 904.520502,300.865794 C911.091063,301.360106 917.681148,301.853335 924.264725,301.865787 C939.041029,301.893399 953.493009,299.734778 966.914524,293.259455 C986.268798,283.920588 998.520467,269.278562 1000.9746,247.225647 C1003.2107,227.13428 987.551997,212.029885 969.308996,212.101352" id="Fill-5" fill="#FFFFFF"></path>
                    <g id="编组" stroke-width="1" fill="none" transform="translate(320.002469, 284.965714)">
                        <mask id="mask-8" fill="white">
                            <use xlink:href="#path-7"></use>
                        </mask>
                        <g id="Clip-8"></g>
                        <path d="M401.757515,18.5758095 C382.469262,14.0354412 362.884491,11.2038719 343.238688,8.93341696 C323.509708,6.65321292 303.73536,4.64652504 283.932386,3.17549555 C263.324655,1.6454299 242.659133,0.899082827 225.62096,0 C211.46047,0.505327878 200.944612,0.826506262 190.433616,1.2668402 C162.38485,2.44160565 134.439243,4.62919333 106.749106,9.53677736 C84.398454,13.498158 62.3065124,18.4144079 41.1619162,26.8858262 C30.5396583,31.141846 20.0670096,35.7585822 11.5630461,43.7782927 C2.40555473,52.4143624 -2.19614544,62.6725724 1.02558479,75.3859286 C4.33373192,88.4388781 12.7847651,96.3887201 25.8736855,99.202416 C35.6117905,101.295763 44.6990681,99.0751362 53.5530201,94.8050344 C78.657671,82.6977468 104.844694,73.4269029 131.733314,66.305192 C148.2249,61.9370577 164.927127,58.2713995 181.670942,54.9881224 C195.064482,52.3618256 208.623295,50.4477541 222.182107,48.8396957 C236.903227,47.0946084 251.69294,45.8261434 266.483733,44.8030305 C279.480836,43.9044892 292.517366,43.3726222 305.544174,43.1624751 C316.959847,42.9788672 328.401445,43.166808 339.804696,43.7311721 C356.409704,44.5528038 372.988787,45.8878876 389.582453,46.9445808 C395.197932,47.3020474 400.767501,48.7925751 406.461835,47.2728001 C416.171855,44.6811668 420.163776,33.6419462 414.181565,25.5637412 C411.090001,21.3878806 406.569316,19.7083289 401.757515,18.5758095" id="Fill-7" fill="#FFFFFF" mask="url(#mask-8)"></path>
                    </g>
                    <path d="M330.185428,263.164088 C339.835875,261.817093 347.601848,257.805067 352.04359,248.84155 C354.334135,244.219301 354.319982,239.186305 354.735851,234.196742 C355.984003,219.231809 358.365452,204.420772 361.953682,189.831195 C364.622538,178.982315 367.463947,168.090538 373.687829,158.585971 C375.979463,155.086574 379.088682,151.80274 382.534843,149.416008 C387.115934,146.243172 392.155351,148.656179 393.656072,154.069358 C394.180263,155.959011 394.489988,157.907112 394.893337,159.829474 C396.170338,165.912397 401.120485,170.42043 407.372129,171.210824 C417.664342,172.511703 425.998596,168.711485 432.353662,161.053673 C441.820669,149.646584 445.156875,136.264583 444.062225,121.714687 C443.355683,112.328626 439.126774,104.726045 431.371144,99.325199 C422.049473,92.8331376 411.921104,93.1618428 401.814508,97.2569839 C390.298094,101.922667 382.354669,110.68939 375.516781,120.565023 C373.952918,122.824134 372.525137,125.174939 371.034759,127.483919 C370.803418,127.416891 370.572077,127.350399 370.341281,127.283371 C370.845332,124.131984 371.463692,120.994002 371.833293,117.827065 C373.108116,106.89507 370.287392,96.972249 357.969723,92.1794808 C345.863254,87.4687548 334.129652,88.8447051 323.489611,96.6306745 C317.133456,101.282416 315.309403,106.199588 317.412154,113.684736 C318.543818,117.713385 319.204092,121.684659 318.308667,125.815727 C314.466778,143.537387 310.641763,161.262264 306.779189,178.979634 C303.166463,195.553775 299.254356,212.071076 297.56584,228.991618 C296.899579,235.666532 297.15106,242.189158 300.141071,248.383079 C305.196274,258.856066 317.640229,264.915395 330.185428,263.164088" id="Fill-9" fill="#FFFFFF"></path>
                    <path d="M623.651397,74.2938353 C641.465134,74.6081484 655.666411,60.1101886 655.820615,42.6775705 C655.966192,26.1793391 641.999454,12.3067982 625.645798,12.300381 C607.698885,12.2934345 592.891038,25.9826261 592.821743,42.6813123 C592.754627,58.938998 604.812692,74.6680176 623.651397,74.2938353" id="Fill-11" fill="#FFFFFF"></path>
                </g>
            </g>
            <g id="编组" mask="url(#mask-4)">
                <g transform="translate(936.950176, 236.745500) rotate(-23.000000) translate(-936.950176, -236.745500) translate(906.000000, 203.000000)">
                    <g>
                        <mask id="mask-10" fill="white">
                            <use xlink:href="#path-9"></use>
                        </mask>
                        <g id="Clip-2"></g>
                        <path d="M38.4221839,22.9602 C43.1341839,18.7172 44.2931839,13.8032 42.2321839,8.6062 C40.2021839,3.4882 35.1581839,0.1132 29.3691839,0.0012 C24.1981839,-0.0638 20.3901839,2.4932 17.2621839,6.3252 C10.5421839,14.5592 5.49018388,23.7682 1.70318388,33.6512 C0.71618388,36.2272 0.13618388,39.0732 0.00518387999,41.8252 C-0.12481612,44.5322 2.20918388,46.3192 4.87618388,45.7582 C6.67818388,45.3792 8.49518388,44.5312 10.0231839,43.4822 C16.6501839,38.9322 23.1921839,34.2562 29.7261839,29.5702 C32.6851839,27.4482 35.7251839,25.3892 38.4221839,22.9602" id="Fill-1" fill="#FFFFFF" mask="url(#mask-10)"></path>
                    </g>
                    <g transform="translate(10.295486, 41.385199)">
                        <mask id="mask-12" fill="white">
                            <use xlink:href="#path-11"></use>
                        </mask>
                        <g id="Clip-4"></g>
                        <path d="M49.4255982,4.88020059 C46.7235982,0.45820059 42.2145982,-0.36179941 37.4255982,0.12320059 C28.8255982,0.99220059 21.1555982,4.59220059 13.8695982,8.88520059 C9.56559823,11.4222006 5.66059823,14.6872006 1.78159823,17.8742006 C0.145598235,19.2182006 -0.518401765,21.2902006 0.449598235,23.5252006 C1.36559823,25.6392006 3.25359823,26.0292006 5.17959823,26.0592006 C10.6415982,26.1432006 16.1065982,26.0882006 21.5705982,26.0882006 L21.5705982,25.8982006 C26.7845982,25.8982006 32.0115982,26.1072006 37.2125982,25.8382006 C42.2815982,25.5762006 47.2215982,24.5022006 49.8195982,19.3652006 C52.2705982,14.5182006 52.2525982,9.50720059 49.4255982,4.88020059" id="Fill-3" fill="#FFFFFF" mask="url(#mask-12)"></path>
                    </g>
                </g>
            </g>
        </g>
    </g>
</svg>