<?xml version="1.0" encoding="UTF-8"?>
<svg width="1025px" height="1024px" viewBox="0 0 1025 1024" version="1.1" xmlns="http://www.w3.org/2000/svg" xmlns:xlink="http://www.w3.org/1999/xlink">
    <title>编组</title>
    <defs>
        <linearGradient x1="50%" y1="0%" x2="50%" y2="100%" id="linearGradient-1">
            <stop stop-color="#2DFFCF" offset="0%"></stop>
            <stop stop-color="#CFFC65" offset="100%"></stop>
        </linearGradient>
        <linearGradient x1="53.1743838%" y1="46.5860701%" x2="50%" y2="65.9761226%" id="linearGradient-2">
            <stop stop-color="#FD71FF" stop-opacity="0" offset="0%"></stop>
            <stop stop-color="#FD71FF" offset="100%"></stop>
        </linearGradient>
    </defs>
    <g id="62" stroke="none" stroke-width="1" fill="none" fill-rule="evenodd">
        <g id="logo备份-10" transform="translate(1.000000, 0.000000)">
            <g id="编组" transform="translate(-0.302572, 0.000000)">
                <rect id="矩形" fill="url(#linearGradient-1)" x="0.302572038" y="0" width="1024" height="1024"></rect>
                <g id="编组-2" transform="translate(-0.000000, 138.769068)">
                    <path d="M861.159372,438.991632 L831.304372,406.309632 C828.846372,403.619632 827.622372,400.023632 827.947372,396.394632 C828.838372,386.458632 829.302372,376.398632 829.302372,366.229632 C829.302372,185.115632 685.574372,37.5696324 505.956372,31.4286324 C312.537372,24.8166324 152.888372,184.465632 159.500372,377.884632 C165.641372,557.502632 313.187372,701.229632 494.302372,701.229632 C573.818372,701.229632 646.848372,673.507632 704.298372,627.224632 L704.302372,627.229632 L704.376372,627.162632 C714.293372,619.167632 723.751372,610.627632 732.692372,601.574632 C734.928372,599.310632 737.194372,597.080632 739.539372,594.930632 L859.063372,485.372632 C872.450372,473.142632 873.388372,452.378632 861.159372,438.991632" id="Fill-1" stroke="#000000" stroke-width="61" fill="#FFFFFF"></path>
                    <path d="M171.035029,283.498879 C109.669133,313.168345 72.8889227,351.005039 72.8889227,392.217263 C72.8889227,487.486383 269.435918,564.717263 511.888923,564.717263 C754.341928,564.717263 950.888923,487.486383 950.888923,392.217263 C950.888923,365.63608 935.588243,340.459127 908.258856,317.972089" id="路径" stroke="#FD71FF" stroke-width="61" fill="url(#linearGradient-2)" stroke-linecap="round" stroke-linejoin="bevel" transform="translate(511.888923, 424.108071) rotate(-29.000000) translate(-511.888923, -424.108071) "></path>
                    <rect id="矩形" fill="#000000" x="321.302572" y="196.230932" width="84.4763948" height="138" rx="40.5"></rect>
                    <path d="M159.500372,377.884632 C161.301049,430.55259 175.259609,480.134669 198.657403,523.912218 M805.37012,241.644868 C783.708477,187.609139 748.375087,140.528713 703.649321,104.682919" id="形状" stroke="#000000" stroke-width="61" fill="#FFFFFF"></path>
                    <ellipse id="椭圆形" transform="translate(504.344709, 398.316365) rotate(-29.000000) translate(-504.344709, -398.316365) " cx="504.344709" cy="398.316365" rx="468" ry="196"></ellipse>
                    <rect id="矩形备份" fill="#000000" x="463.778967" y="196.230932" width="84.4763948" height="138" rx="40.5"></rect>
                </g>
            </g>
        </g>
    </g>
</svg>